<svg viewBox="0 0 32 32" xml:space="preserve" xmlns="http://www.w3.org/2000/svg"><path d="M8.737 30.128a.436.436 0 0 1-.051-.003l-5.766-.576-.021-.002-1.285-.129a.32.32 0 0 1-.054-.008h.001a.51.51 0 0 1-.267-.153v-.001l-.001-.001-.001-.001-.001-.001v-.001a.5.5 0 0 1-.082-.125v-.002h-.001a.504.504 0 0 1-.042-.239l.377-5.793a.506.506 0 0 1 .146-.322l10.463-10.397a9.47 9.47 0 0 1 1.717-7.545.5.5 0 0 1 .799.601 8.471 8.471 0 0 0-1.482 6.995.502.502 0 0 1-.135.466L2.528 23.347l-.333 5.125.569.057 11.274-11.274a.497.497 0 0 0 0-.707.512.512 0 0 0-.707 0l-9.069 9.068a.5.5 0 0 1-.707-.707l9.069-9.068a1.503 1.503 0 0 1 2.121 0c.283.282.439.658.439 1.06 0 .4-.156.778-.439 1.062L4.05 28.657l4.244.424.299-2.69a.5.5 0 0 1 .144-.298l2.475-2.476a.5.5 0 0 1 .354-.146h1.914l4.766-4.766a.498.498 0 0 1 .513-.12c3.084 1.032 6.426.254 8.718-2.038 3.313-3.314 3.313-8.708 0-12.021-2.977-2.977-7.754-3.316-11.109-.792a.5.5 0 1 1-.601-.799c3.755-2.823 9.092-2.442 12.418.884 3.704 3.704 3.704 9.73 0 13.436a9.433 9.433 0 0 1-9.445 2.373l-4.697 4.697a.5.5 0 0 1-.354.146h-1.914l-2.204 2.205-.334 3.008a.507.507 0 0 1-.5.444zm15.555-18.923a3.495 3.495 0 0 1-2.475-1.022 3.477 3.477 0 0 1-1.025-2.475 3.48 3.48 0 0 1 1.025-2.476 3.51 3.51 0 0 1 4.95 0 3.507 3.507 0 0 1 0 4.95 3.49 3.49 0 0 1-2.475 1.023zm-1.768-1.729a2.504 2.504 0 0 0 3.536 0 2.505 2.505 0 0 0 0-3.536 2.502 2.502 0 0 0-3.536 0 2.505 2.505 0 0 0 0 3.536z" fill="#ffffff" class="fill-263238"></path><path d="M2.95 29.55a.5.5 0 0 1-.354-.853l11.442-11.442a.497.497 0 0 0 0-.707.5.5 0 0 0-.707 0l-9.069 9.068a.5.5 0 0 1-.707-.707l9.069-9.068a1.503 1.503 0 0 1 2.121 0c.283.282.439.658.439 1.06 0 .4-.156.778-.439 1.062L3.304 29.403a.5.5 0 0 1-.354.147z" fill="#ffffff" class="fill-263238"></path><circle cx="14.5" cy="1.5" fill="#ffffff" r=".5" class="fill-263238"></circle><circle cx="30.5" cy="17.5" fill="#ffffff" r=".5" class="fill-263238"></circle><path d="M21.5 22.5c-.566 0-1.138-.04-1.696-.119a.5.5 0 0 1-.425-.565.505.505 0 0 1 .565-.425c3.165.446 6.44-.525 8.841-2.649a.5.5 0 1 1 .662.75A11.986 11.986 0 0 1 21.5 22.5zM10.113 12.627a.5.5 0 0 1-.494-.43A12.159 12.159 0 0 1 9.5 10.5a11.96 11.96 0 0 1 3.153-8.107.5.5 0 0 1 .736.676A10.965 10.965 0 0 0 10.5 10.5c0 .521.037 1.044.109 1.557a.5.5 0 0 1-.496.57z" fill="#ffffff" class="fill-263238"></path></svg>