<?xml version="1.0" encoding="UTF-8" standalone="no" ?>
<!DOCTYPE svg PUBLIC "-//W3C//DTD SVG 1.1//EN" "http://www.w3.org/Graphics/SVG/1.1/DTD/svg11.dtd">
<svg xmlns="http://www.w3.org/2000/svg" xmlns:xlink="http://www.w3.org/1999/xlink" version="1.1" width="400" height="400" viewBox="0 0 400 400" xml:space="preserve">
<desc>Created with Fabric.js 3.6.2</desc>
<defs>
</defs>
<g transform="matrix(0.23 0 0 0.23 200 200)" id="Shape_1"  >
<path style="stroke: none; stroke-width: 1; stroke-dasharray: none; stroke-linecap: butt; stroke-dashoffset: 0; stroke-linejoin: miter; stroke-miterlimit: 4; fill: rgb(50,50,50); fill-rule: nonzero; opacity: 1;"  transform=" translate(-499.73, -300.26)" d="M 187.836 395.02 c -4.079 0 -7.386 3.307 -7.386 7.386 s 3.307 7.386 7.386 7.386 s 7.386 -3.307 7.386 -7.386 S 191.916 395.02 187.836 395.02 z M 177.314 380.15 c 0.724 -0.343 1.466 -0.655 2.227 -0.928 v -25.355 c -7.415 1.258 -14.264 4.176 -20.156 8.354 L 177.314 380.15 z M 187.836 415.978 c -1.729 0 -3.13 1.401 -3.13 3.131 c 0 1.729 1.401 3.13 3.13 3.13 s 3.13 -1.401 3.13 -3.13 C 190.967 417.379 189.565 415.978 187.836 415.978 z M 196.132 425.587 v 25.356 c 7.415 -1.259 14.264 -4.177 20.156 -8.355 l -17.929 -17.929 C 197.635 425.002 196.894 425.314 196.132 425.587 z M 211.017 410.7 c -0.273 0.761 -0.58 1.506 -0.923 2.229 l 17.928 17.929 c 4.18 -5.892 7.095 -12.743 8.354 -20.158 H 211.017 z M 187.836 321.782 c -44.527 0 -80.623 36.096 -80.623 80.623 c 0 44.526 36.096 80.622 80.623 80.622 s 80.623 -36.096 80.623 -80.622 C 268.459 357.878 232.363 321.782 187.836 321.782 z M 187.836 459.992 c -31.805 0 -57.587 -25.782 -57.587 -57.587 s 25.783 -57.588 57.587 -57.588 s 57.588 25.783 57.588 57.588 S 219.641 459.992 187.836 459.992 z M 201.41 402.404 c 0 1.729 1.401 3.13 3.13 3.13 s 3.13 -1.401 3.13 -3.13 c 0 -1.729 -1.401 -3.131 -3.13 -3.131 S 201.41 400.675 201.41 402.404 z M 187.836 388.83 c 1.729 0 3.13 -1.401 3.13 -3.13 c 0 -1.729 -1.401 -3.131 -3.13 -3.131 s -3.13 1.401 -3.13 3.131 C 184.706 387.429 186.107 388.83 187.836 388.83 z M 216.289 362.221 c -5.892 -4.179 -12.741 -7.096 -20.156 -8.354 v 25.355 c 0.761 0.272 1.503 0.584 2.228 0.927 L 216.289 362.221 z M 165.58 391.88 l -17.928 -17.929 c -4.18 5.892 -7.095 12.743 -8.354 20.158 h 25.359 C 164.929 393.349 165.236 392.604 165.58 391.88 z M 164.655 410.7 h -25.357 c 1.258 7.415 4.175 14.266 8.354 20.157 l 17.929 -17.93 C 165.238 412.204 164.927 411.461 164.655 410.7 z M 159.384 442.589 c 5.892 4.18 12.742 7.096 20.157 8.354 v -25.356 c -0.761 -0.272 -1.504 -0.583 -2.229 -0.927 L 159.384 442.589 z M 174.263 402.404 c 0 -1.729 -1.401 -3.131 -3.13 -3.131 s -3.13 1.401 -3.13 3.131 c 0 1.729 1.401 3.13 3.13 3.13 S 174.263 404.133 174.263 402.404 z M 211.018 394.109 h 25.357 c -1.259 -7.415 -4.175 -14.266 -8.354 -20.157 l -17.929 17.93 C 210.435 392.605 210.746 393.348 211.018 394.109 z M 789.273 390.871 c -4.078 0 -7.385 3.308 -7.385 7.386 c 0 4.079 3.307 7.386 7.385 7.386 c 4.079 0 7.386 -3.307 7.386 -7.386 C 796.659 394.179 793.353 390.871 789.273 390.871 z M 797.57 421.439 v 25.355 c 7.414 -1.258 14.264 -4.176 20.155 -8.354 l -17.93 -17.93 C 799.072 420.854 798.331 421.167 797.57 421.439 z M 789.273 411.83 c -1.729 0 -3.13 1.401 -3.13 3.13 c 0 1.729 1.401 3.131 3.13 3.131 c 1.729 0 3.131 -1.401 3.131 -3.131 C 792.404 413.231 791.003 411.83 789.273 411.83 z M 938.742 364.425 c 3.894 -24.361 -0.146 -26.462 -16.273 -62.38 c -4.379 -9.752 -15.954 -15.688 -25.314 -20.794 c -48.921 -26.685 -171.067 -43.229 -179.005 -43.395 c -24.868 -24.765 -65.578 -71.341 -120.214 -108.598 c -10.192 -6.95 -46.134 -8.027 -46.134 -8.027 s -294.928 -11.301 -365.243 5.425 c -6.066 1.442 -10.282 0.939 -15.369 3.616 c -0.829 0.436 -15.444 15.535 -16.273 17.177 c -0.81 1.604 -5.596 6.829 -7.232 9.041 c -10.851 14.667 -24.152 29.147 -33.451 45.203 c -4.083 7.052 -5.975 13.763 -9.945 20.794 c -3.821 6.768 -17.723 11.975 -19.889 24.409 c -1.04 5.966 -7.825 3.736 -8.137 12.657 c 3.099 0.957 3.473 2.089 7.232 2.712 c -5.436 19.767 -8.772 55.053 -9.06 58.771 c 0.007 -0.002 0.013 -0.005 0.02 -0.007 c -0.046 0.451 -0.052 0.426 -0.02 0.007 c -17.009 5.34 -15.43 35.902 -17.019 30.364 c 2.045 8.134 7.679 18.729 9.806 27.489 c 1.822 7.505 -4.228 10.706 -4.521 18.081 c 1.32 0.771 2.592 8.87 3.616 9.944 c 4.3 11.836 37.949 22.548 37.949 22.548 l 3.334 0.004 c -2.865 -8.497 -4.419 -17.599 -4.419 -27.063 c 0 -46.754 37.901 -84.655 84.655 -84.655 s 84.655 37.901 84.655 84.655 c 0 9.538 -1.579 18.708 -4.487 27.263 l 442.863 0.551 c -4.024 -9.863 -6.248 -20.651 -6.248 -31.962 c 0 -46.753 37.901 -84.654 84.654 -84.654 c 46.754 0 84.655 37.901 84.655 84.654 c 0 11.385 -2.253 22.241 -6.328 32.156 l 6.952 0.009 c 0 0 51.968 4.831 58.765 -11.753 c 2.79 -3.113 3.824 -18.861 3.616 -28.025 c 0.1 -9.427 2.004 -7.608 4.521 -13.562 C 943.899 371.298 937.841 367.068 938.742 364.425 z M 347.483 223.391 c -1.658 1.162 -1.548 1.779 -3.617 2.713 c -6.585 4.99 -70.862 -1.809 -158.211 -1.809 c 1.486 2.12 -10.225 0.291 -0.904 -19.89 c 12.67 -27.431 31.993 -46.651 30.929 -47.037 c 25.668 -3.86 94.447 -2.738 131.804 -1.782 C 346.726 177.284 347.035 189.036 347.483 223.391 z M 608.758 244.185 c -1.347 -1.919 -5.584 -4.361 -6.328 -6.328 c -0.86 -2.274 1.414 -6.767 0 -9.945 c -3.891 -8.744 -16.79 -14.632 -29.834 -14.465 c -3.108 3.6 -7.803 5.202 -9.945 9.944 c -0.593 1.313 -2.878 13.747 -2.712 14.466 c 0.447 1.942 1.554 2.306 1.835 3.306 c 2.324 0.093 1.197 0.357 -0.027 1.214 c 0.125 -0.517 0.117 -0.896 0.027 -1.214 c -6.519 -0.261 -40.229 0.829 -175.416 -6.019 c -3.745 -71.159 -7.104 -73.49 0.904 -84.981 c 79.107 0 162.732 -0.904 162.732 -0.904 s 59.5 72.629 77.749 95.831 C 624.519 246.634 614.02 244.417 608.758 244.185 z M 665.714 236.952 c -29.363 -23.554 -68.116 -74.352 -86.79 -89.503 c -6.332 0 14.816 -0.36 26.218 -2.712 c 34.03 30.023 69.262 57.18 100.174 92.502 C 690.677 237.908 678.144 246.922 665.714 236.952 z M 789.273 317.635 c -44.526 0 -80.622 36.096 -80.622 80.622 c 0 44.527 36.096 80.623 80.622 80.623 c 44.527 0 80.623 -36.096 80.623 -80.623 C 869.896 353.73 833.801 317.635 789.273 317.635 z M 789.273 455.845 c -31.805 0 -57.587 -25.783 -57.587 -57.588 s 25.782 -57.587 57.587 -57.587 s 57.588 25.782 57.588 57.587 S 821.078 455.845 789.273 455.845 z M 811.531 408.782 l 17.928 17.928 c 4.18 -5.892 7.095 -12.742 8.354 -20.157 h -25.358 C 812.182 407.313 811.874 408.058 811.531 408.782 z M 812.455 389.961 h 25.357 c -1.259 -7.415 -4.176 -14.265 -8.354 -20.156 l -17.929 17.929 C 811.872 388.458 812.183 389.2 812.455 389.961 z M 778.752 376.003 c 0.725 -0.343 1.466 -0.655 2.227 -0.928 v -25.356 c -7.415 1.259 -14.264 4.177 -20.156 8.354 L 778.752 376.003 z M 775.7 398.256 c 0 -1.729 -1.401 -3.13 -3.131 -3.13 c -1.729 0 -3.13 1.401 -3.13 3.13 c 0 1.729 1.401 3.131 3.13 3.131 C 774.299 401.387 775.7 399.985 775.7 398.256 z M 789.273 384.683 c 1.729 0 3.131 -1.401 3.131 -3.131 c 0 -1.729 -1.401 -3.13 -3.131 -3.13 c -1.729 0 -3.13 1.401 -3.13 3.13 C 786.144 383.281 787.545 384.683 789.273 384.683 z M 817.726 358.072 c -5.891 -4.179 -12.741 -7.095 -20.155 -8.354 v 25.356 c 0.761 0.272 1.503 0.583 2.227 0.926 L 817.726 358.072 z M 802.848 398.256 c 0 1.729 1.401 3.131 3.131 3.131 c 1.729 0 3.13 -1.401 3.13 -3.131 c 0 -1.729 -1.401 -3.13 -3.13 -3.13 C 804.249 395.126 802.848 396.527 802.848 398.256 z M 767.018 387.731 l -17.929 -17.928 c -4.18 5.892 -7.095 12.742 -8.354 20.157 h 25.358 C 766.367 389.2 766.674 388.456 767.018 387.731 z M 760.821 438.441 c 5.892 4.179 12.742 7.096 20.157 8.354 v -25.355 c -0.762 -0.272 -1.504 -0.584 -2.229 -0.927 L 760.821 438.441 z M 766.092 406.553 h -25.356 c 1.259 7.415 4.175 14.265 8.354 20.156 l 17.929 -17.929 C 766.676 408.056 766.364 407.313 766.092 406.553 z" stroke-linecap="round" />
</g>
</svg>