<svg id="Layer_1" version="1.1" viewBox="0 0 128 128" xml:space="preserve" xmlns="http://www.w3.org/2000/svg" enable-background="new 0 0 128 128"><circle cx="92" cy="75.47" r="17.47" fill="#ffffff" class="fill-ffffff"></circle><path d="M112.47 63.47c0-11.32-9.18-20.5-20.5-20.5s-20.5 9.18-20.5 20.5h41z" fill="#bfcc58" class="fill-bfcc58"></path><circle cx="36" cy="75.47" r="17.47" fill="#ffffff" class="fill-ffffff"></circle><path d="M56.53 63.47c0-11.32-9.18-20.5-20.5-20.5s-20.5 9.18-20.5 20.5h41z" fill="#bfcc58" class="fill-bfcc58"></path><path d="M87 68c0 12.7-10.3 23-23 23S41 80.7 41 68V51h46v17z" fill="#ffffff" class="fill-ffffff"></path><path d="M68.38 124.02c-6.4-11.26-18.5-18.85-32.37-18.85-13.88 0-25.98 7.6-32.38 18.85l.05 2.98h64.63l.07-2.98z" fill="#bfcc58" class="fill-bfcc58"></path><path d="M3.62 127.02c-.5 0-1.01-.13-1.48-.39a3.01 3.01 0 0 1-1.13-4.09c5.22-9.19 14.03-16.07 24.17-18.9 1.6-.45 3.25.49 3.7 2.08.45 1.6-.49 3.25-2.08 3.7-8.62 2.4-16.12 8.27-20.56 16.08-.56.97-1.57 1.52-2.62 1.52z" fill="#ffffff" class="fill-464c54"></path><path d="M59.62 124.02c6.4-11.26 18.5-18.85 32.37-18.85 13.88 0 25.98 7.6 32.38 18.85l-.06 2.98H59.68l-.06-2.98z" fill="#bfcc58" class="fill-bfcc58"></path><path d="M124.38 127.02c-1.04 0-2.06-.55-2.61-1.52-4.44-7.82-11.94-13.68-20.56-16.08-1.6-.44-2.53-2.1-2.08-3.7.44-1.6 2.1-2.53 3.7-2.08 10.14 2.83 18.95 9.71 24.17 18.9a3 3 0 0 1-1.13 4.09c-.48.26-.99.39-1.49.39z" fill="#ffffff" class="fill-464c54"></path><path d="M101.07 123.59C93.74 110.7 79.89 102 64 102s-29.74 8.7-37.07 21.59L27 127h74l.07-3.41z" fill="#627148" class="fill-627148"></path><path d="M26.93 127c-.5 0-1.01-.13-1.48-.39a3.01 3.01 0 0 1-1.13-4.09c8.1-14.25 23.3-23.11 39.68-23.11s31.58 8.85 39.68 23.1a3 3 0 1 1-5.22 2.96C91.42 113.1 78.22 105.41 64 105.41c-14.22 0-27.43 7.69-34.46 20.07-.55.97-1.57 1.52-2.61 1.52zM64 94c-14.34 0-26-11.66-26-26 0-1.66 1.34-3 3-3s3 1.34 3 3c0 11.03 8.97 20 20 20s20-8.97 20-20c0-1.66 1.34-3 3-3s3 1.34 3 3c0 14.34-11.66 26-26 26z" fill="#ffffff" class="fill-464c54"></path><path d="M90 56c0-14.36-11.64-26-26-26S38 41.64 38 56h52z" fill="#bfcc58" class="fill-bfcc58"></path><path d="M90 59H38c-1.66 0-3-1.34-3-3 0-15.99 13.01-29 29-29s29 13.01 29 29c0 1.66-1.34 3-3 3zm-48.81-6H86.8C85.33 41.73 75.67 33 64 33s-21.33 8.73-22.81 20z" fill="#ffffff" class="fill-464c54"></path><path d="M64 88c-.78 0-1.57-.05-2.35-.14a2.996 2.996 0 0 1-2.63-3.33 2.996 2.996 0 0 1 3.33-2.63c1.06.12 2.16.13 3.22.01 1.65-.18 3.13 1 3.31 2.65.18 1.65-1 3.13-2.65 3.31-.73.09-1.48.13-2.23.13z" fill="#ffffff" class="fill-ffffff"></path><path d="M82 121H72c-1.66 0-3 1.34-3 3v3h16v-3c0-1.66-1.34-3-3-3z" fill="#bfcc58" class="fill-bfcc58"></path><path d="M101.58 42.02c-1.51-.68-3.29 0-3.96 1.51s0 3.29 1.51 3.96c5.36 2.4 9.1 7.31 10.09 12.98H96.47c-1.66 0-3 1.34-3 3s1.34 3 3 3h6.84c2.03 2.55 3.16 5.71 3.16 9 0 7.98-6.49 14.47-14.47 14.47-.89 0-1.77-.08-2.63-.24-1.63-.3-3.19.78-3.49 2.41-.3 1.63.78 3.19 2.41 3.49 1.22.22 2.47.34 3.72.34 11.29 0 20.47-9.18 20.47-20.47 0-3.15-.72-6.22-2.08-9h2.08c1.66 0 3-1.34 3-3-.01-9.25-5.47-17.67-13.9-21.45zM38.63 89.7c-.86.16-1.75.24-2.63.24-7.98 0-14.47-6.49-14.47-14.47 0-3.28 1.12-6.45 3.16-9h6.84c1.66 0 3-1.34 3-3s-1.34-3-3-3H18.79c.99-5.66 4.73-10.57 10.09-12.98 1.51-.68 2.19-2.45 1.51-3.96s-2.45-2.19-3.96-1.51c-8.44 3.78-13.89 12.21-13.89 21.45 0 1.66 1.34 3 3 3h2.1a20.51 20.51 0 0 0-2.1 9c0 11.29 9.18 20.47 20.47 20.47 1.25 0 2.5-.11 3.72-.34 1.63-.3 2.71-1.86 2.41-3.49a3.018 3.018 0 0 0-3.51-2.41z" fill="#ffffff" class="fill-464c54"></path></svg>